<?xml version="1.0" encoding="UTF-8" standalone="no"?>
<!-- Created with Inkscape (http://www.inkscape.org/) -->

<svg
   width="210mm"
   height="297mm"
   viewBox="0 0 210 297"
   version="1.1"
   id="svg1"
   sodipodi:docname="icons.svg"
   inkscape:version="1.4 (1:1.4+202410161351+e7c3feb100)"
   inkscape:export-filename="icon-16.png"
   inkscape:export-xdpi="3.1750002"
   inkscape:export-ydpi="3.1750002"
   xmlns:inkscape="http://www.inkscape.org/namespaces/inkscape"
   xmlns:sodipodi="http://sodipodi.sourceforge.net/DTD/sodipodi-0.dtd"
   xmlns="http://www.w3.org/2000/svg"
   xmlns:svg="http://www.w3.org/2000/svg">
  <sodipodi:namedview
     id="namedview1"
     pagecolor="#ffffff"
     bordercolor="#000000"
     borderopacity="0.25"
     inkscape:showpageshadow="2"
     inkscape:pageopacity="0.0"
     inkscape:pagecheckerboard="0"
     inkscape:deskcolor="#d1d1d1"
     inkscape:document-units="mm"
     inkscape:zoom="0.89827758"
     inkscape:cx="119.67348"
     inkscape:cy="311.15104"
     inkscape:window-width="1920"
     inkscape:window-height="919"
     inkscape:window-x="0"
     inkscape:window-y="30"
     inkscape:window-maximized="1"
     inkscape:current-layer="layer1" />
  <defs
     id="defs1" />
  <g
     inkscape:label="Layer 1"
     inkscape:groupmode="layer"
     id="layer1">
    <rect
       style="fill:#c5e3ca;stroke-width:0.264583;stroke-linecap:round;stroke-linejoin:bevel;fill-opacity:1"
       id="rect1"
       width="128"
       height="128"
       x="-0.039051544"
       y="-0.013017181" />
    <g
       id="g9"
       transform="translate(0.77509766,-2.5035742)">
      <path
         style="fill:#8f8fcb;fill-opacity:1;stroke-width:0.51218;stroke-linecap:round;stroke-linejoin:bevel"
         id="path2"
         d="m 16.19509,15.471664 c 0.900445,0.560869 4.801769,2.992545 5.197692,3.229767 1.39586,0.836363 2.900307,1.585848 4.235493,2.469393 3.741674,2.476009 9.367725,6.822944 12.322347,9.573406 2.349852,2.187484 4.379731,4.534654 6.569595,6.801984 5.342838,6.229842 10.246419,12.686903 14.215953,19.409335 1.480792,2.507739 3.384697,5.033575 2.275695,7.852756 -0.350907,0.892037 -1.427918,1.557425 -2.141878,2.336138 -1.311333,0.540182 -2.535414,1.201027 -3.934,1.62055 -1.63258,0.489707 -3.369467,0.798402 -5.096718,1.088298 -6.019992,1.010375 -12.25976,1.131295 -18.415311,1.191567 -2.930927,-0.09233 -5.902563,-0.237303 -8.73464,-0.819648 -0.742978,-0.152772 -2.827567,-0.855379 -2.184258,-0.553708 12.85821,6.02972 4.838621,1.737512 3.737091,1.132355 -3.504347,-2.156598 -5.738534,-5.048045 -6.366789,-8.298207 -0.130576,-0.675542 -0.09639,-1.361725 -0.144631,-2.042582 0.111907,-1.290509 0.211966,-3.066432 0.541014,-4.340891 0.170846,-0.661677 0.476359,-1.302809 0.714544,-1.954216 0,0 -7.582309,-2.871121 -7.582309,-2.871121 v 0 c -0.242171,0.679724 -0.547167,1.349975 -0.726521,2.039171 -0.292356,1.123441 -0.502997,3.276539 -0.635374,4.412526 0.03135,0.711284 -0.01712,1.426486 0.09399,2.133859 0.519033,3.307472 2.542738,6.345437 5.996701,8.632543 7.665466,4.690976 12.875645,5.889383 22.136154,5.990903 6.104279,-0.167281 12.29208,-0.428057 18.245242,-1.46648 1.803109,-0.314518 3.628666,-0.621447 5.328501,-1.146897 1.518097,-0.469281 2.833768,-1.209478 4.250654,-1.814218 0.73753,-0.892018 1.891189,-1.67032 2.212586,-2.676052 C 69.268468,64.390081 67.0391,61.669146 65.379424,59.074532 61.067205,52.33309 56.029656,45.812572 50.704517,39.442029 48.630074,37.190745 46.709872,34.866077 44.481194,32.68818 42.455097,30.708248 35.951857,25.264564 33.133775,23.293748 31.896879,22.428735 30.44606,21.72721 29.136783,20.916043 27.1955,19.713319 26.267965,19.042005 24.57107,17.859376 Z" />
      <path
         style="fill:#8f8fcb;fill-opacity:1;stroke-width:0.40401;stroke-linecap:round;stroke-linejoin:bevel"
         id="path3"
         d="m 56.830634,18.498764 c 9.09257,9.868213 17.277897,19.915983 24.489364,30.115951 1.941185,2.745641 3.722397,5.515246 5.583595,8.27287 3.576521,5.479796 6.840421,11.002467 9.868101,16.55309 0.51668,0.947248 1.08514,1.889297 1.51241,2.846165 0.77675,1.739448 1.03224,1.773647 -0.0876,1.198341 1.78271,0.103084 4.949976,1.124913 5.348096,0.309246 0.60104,-1.231445 -2.66457,-2.20122 -3.872806,-3.331821 -1.80702,-1.690882 -3.5239,-3.40303 -5.16942,-5.129292 -7.04405,-7.38965 -13.06176,-14.962457 -19.192426,-22.522253 -4.446287,-5.863598 -9.561116,-11.656498 -12.716825,-17.716152 -0.769658,-1.477905 -2.278472,-4.489128 -1.25376,-6.200945 0.394339,-0.658751 1.584245,-1.151737 2.376366,-1.727606 4.108214,-0.774439 5.004237,-1.249551 9.763465,-0.788921 2.143878,0.2075 4.108054,0.707147 6.144224,1.082214 0.146303,0.02694 -0.584703,-0.08407 -0.46559,-0.03619 9.511571,3.822641 0.920083,-0.0477 8.994765,3.719143 2.312951,1.405412 4.537961,2.570173 1.816795,4.274662 -1.86388,1.167501 -5.130033,1.683405 -7.854512,2.247268 -2.321333,0.667128 -1.853185,0.193188 -1.806883,1.319604 0,0 7.831588,1.729242 7.831588,1.729242 v 0 c -1.132866,-0.615406 -0.999623,-0.286006 0.910025,-0.911936 2.834618,-0.647424 6.226198,-1.236774 8.142828,-2.487346 3.022036,-1.971838 0.79075,-3.170274 -1.9047,-4.794754 -2.90069,-1.355895 -5.695136,-2.791952 -9.178256,-3.847459 -4.007575,-1.214436 -8.12161,-2.363238 -12.395526,-3.361547 -3.857652,-0.901078 -7.876381,-1.441151 -12.193524,-1.002833 -1.679824,0.170554 -3.125566,0.667462 -4.688353,1.001194 -0.788296,0.651355 -2.026365,1.223208 -2.364889,1.954065 -0.820547,1.771508 1.243988,5.05819 2.156655,6.518265 3.835083,6.135371 9.337978,12.010496 13.983474,18.012544 10.343049,12.638932 2.135804,2.566448 12.430215,15.321359 1.878106,2.327002 3.711926,4.661959 5.652859,6.977757 1.398805,1.668977 2.858455,3.327071 4.365475,4.975493 0.98267,1.074866 1.46847,2.30655 3.10239,3.193046 2.61287,1.417635 6.213006,2.364375 9.319496,3.54656 0.20626,-0.133866 0.64924,-0.237452 0.61875,-0.401598 -0.10335,-0.556627 -0.63728,-1.077492 -0.9926,-1.611142 -0.661,-0.992745 -1.3749,-1.977692 -2.05596,-2.967497 C 99.155514,69.170661 95.341634,63.502007 91.342784,57.861061 84.957533,48.813473 85.724701,49.839525 79.003756,40.573801 74.41751,34.251035 69.588856,27.948011 65.588089,21.536042 65.307374,21.086145 65.116506,20.625131 64.880717,20.169676 Z" />
      <path
         style="fill:#8f8fcb;fill-opacity:1;stroke-width:0.674007;stroke-linecap:round;stroke-linejoin:bevel"
         id="path9"
         d="m 46.112597,51.406175 c -0.665504,0.628031 -3.546807,3.35089 -3.851601,3.616518 -1.074553,0.936515 -2.429667,1.775746 -3.349222,2.765092 -2.576924,2.772502 -5.642763,7.639962 -6.646681,10.71978 -0.798426,2.449425 -0.894984,5.077659 -1.342471,7.616491 -0.186923,6.97584 0.600046,14.206102 3.175585,21.73351 0.960789,2.808034 1.290662,5.636334 6.660459,8.793114 1.699082,0.99884 4.22732,1.74392 6.340982,2.61586 2.728326,0.60488 5.478117,1.34486 8.184952,1.81461 3.159715,0.54835 6.24609,0.89402 9.293181,1.21862 10.62006,1.13137 20.426962,1.26678 30.024995,1.33425 4.413187,-0.10334 8.821014,-0.26571 12.446044,-0.91779 0.95101,-0.17107 3.26412,-0.95781 2.66028,-0.62002 -12.06929,6.75175 -5.23077,1.94558 -4.31169,1.26796 2.62395,-2.41485 2.33091,-5.65253 -0.91081,-9.29189 -0.6738,-0.75644 -1.61619,-1.52478 -2.42422,-2.28718 -1.84602,-1.44504 -4.302998,-3.433623 -6.464036,-4.860692 -1.121992,-0.740901 -2.425619,-1.45882 -3.638438,-2.188221 0,0 8.004483,-3.214921 8.004483,-3.214921 v 0 c 1.255691,0.761113 2.596261,1.511623 3.767081,2.283351 1.90853,1.257965 5.02546,3.668888 6.70284,4.940903 0.87358,0.796451 1.8757,1.59729 2.62087,2.38938 3.48493,3.70354 4.29342,7.10528 1.91659,9.66627 -5.77391,5.25269 -12.27819,6.5946 -26.468473,6.70828 -9.65746,-0.18731 -19.565287,-0.47931 -30.118355,-1.64208 -3.196337,-0.35219 -6.417539,-0.69588 -9.727596,-1.28423 -2.956186,-0.52548 -5.950492,-1.35432 -8.925742,-2.03146 -2.297004,-0.99884 -5.090152,-1.87034 -6.890992,-2.9965 -5.393415,-3.37281 -5.472858,-6.41958 -6.269621,-9.32489 -2.070196,-7.548689 -2.73224,-14.850015 -2.755087,-21.983403 0.289783,-2.520866 0.245891,-5.123902 0.869342,-7.562593 0.566781,-2.217019 3.567468,-8.312561 5.370915,-10.519375 0.791567,-0.968594 2.125915,-1.754123 3.099226,-2.662424 1.443147,-1.346745 2.007372,-2.098445 3.098609,-3.422689 z" />
    </g>
  </g>
</svg>
